<?xml version="1.0" encoding="UTF-8"?>
<svg xmlns="http://www.w3.org/2000/svg" xmlns:cc="http://creativecommons.org/ns#" xmlns:dc="http://purl.org/dc/elements/1.1/" xmlns:rdf="http://www.w3.org/1999/02/22-rdf-syntax-ns#" id="svg394" width="982.93" height="297.89" version="1.1" viewBox="0 0 982.93 297.89" xml:space="preserve">
  <metadata id="metadata400">
    <rdf:RDF>
      <cc:Work rdf:about="">
        <dc:format>image/svg+xml</dc:format>
          <dc:type rdf:resource="http://purl.org/dc/dcmitype/StillImage"/>
          <dc:title/>
      </cc:Work>
    </rdf:RDF>
  </metadata>
    <g id="g402" transform="matrix(1.3333 0 0 -1.3333 0 297.89)">
    <g id="g404" transform="matrix(.1 0 0 .1 3.9089 3.2574)">
      <path id="path406" d="m2223.1 1627c-46.55 267.72-219.74 464.82-467.59 518.48-240.8 52.19-483.02-56.55-634.99-254.97-0.91-1.16-1.75-3.48-2.66-5.61-0.86 2.13-1.73 4.45-2.62 5.61-151.94 198.42-394.14 307.16-634.99 254.97-291.72-63.18-480.25-324.89-480.25-666.8 0-725.05 1024.1-1416.1 1067.7-1445.2l50.14-33.422v206.38c-200.54 144.87-936.63 726.85-936.63 1272.3 0 307.19 173.44 458.44 337.38 489.69 192.49 36.71 385.04-24.22 594.5-334.21 2.11-3.12 4.75-7.16 4.75-7.16s2.68 4.04 4.8 7.16c209.44 309.99 402.02 370.92 594.49 334.21 134.93-25.7 276.19-132.93 321.95-341.37h184" fill="#e1001a"/>
        <path id="path408" d="m1128.7 1336.5c-14.93-45.87-57.15-175.6-80.47-248.25l-42.71-131.13h123.69l1.77 105.64c0.84 55.7 2.38 218.94 2.89 272.69 0 4.07 3.08 26.24 3.12 34.77-2.52-7.81-6.99-29.69-8.29-33.72zm-2.42-615.55 1.3 106.97h-164.02l-34.715-106.97h-183.4l281.09 710.32h233.37l43.64-710.32h-177.27"/>
        <path id="path410" d="m2010.8 720.96h-232.75l5.08 411.84c0.47 65.65 5.27 160.19 7.11 198.81 0.09 4.27 3.37 22.97 2.91 34.6-3.24-11.27-6.2-30-7.27-33.87-9.29-38.14-32.15-133.54-51.48-198.5l-121.02-412.88h-238.8l23.35 710.32 170.16-0.03-34.52-377.6c-6.41-72.291-15.85-185.86-19.46-228.87-0.21-3.562-3.93-23.019-4.82-34.531 3.75 10.949 7.36 30.16 8.2 33.762 11.93 42.238 43.71 155.2 65.98 228.69l113.41 378.58h211.83l-2.64-378.28c-0.25-76.48-7.8-186.1-10.58-228.3-0.11-4.371-2.7-24.16-2.7-34.66 2.87 10.449 5.43 29.852 6.46 33.902 9.97 41.797 36.01 151.81 54.66 227.08l95.7 380.26h174.24l-213.05-710.32"/>
        <path id="path412" d="m2492.9 1305.8c-32.3 0-53.96-15.52-63.1-30.74-33.5-51.73-73.05-272.99-73.05-353.11 0-53.73 20.68-75.422 55.53-75.422 35.72 0 51.94 12.563 58.02 19.621 36.53 40.582 82.19 285.14 82.19 358.18 0 49.71-15.05 81.47-59.59 81.47zm97.2-522.87c-57.85-58.852-130.94-72.129-200.93-72.129-90.3 0-202.94 36.668-202.94 211.15 0 188.72 50.72 356.17 123.78 438.36 64.96 72.04 142.07 81.16 208 81.16 92.35 0 202.97-45.68 202.97-217.14 0-204.93-60.9-370.34-130.88-441.4"/>
        <path id="path414" d="m3113.9 2159.2v-2156.4" fill="#656971"/>
        <path id="path416" d="m3113.9 2159.2v-2156.4" fill="none" stroke="#656971" stroke-miterlimit="10" stroke-width="40"/>
        <path id="path418" d="m3570.6 1316h110.7l-55.18 140.03zm-92.25-124.59 129.18 325.2h45.55l127.18-325.2h-49.88l-35.49 90.09h-137.97l-35.72-90.09h-42.85" fill="#656971"/>
        <path id="path420" d="m3828.3 1191.4v238.62h43.29v-44.62c8.2 15.98 18.86 28.32 31.97 37.04s27.36 13.08 42.74 13.08c4.39 0 9.01-0.37 13.84-1.1v-40.43c-7.33 2.49-13.92 3.73-19.77 3.73-13.63 0-26.19-4.07-37.69-12.2-11.5-8.14-21.86-20.35-31.09-36.63v-157.49h-43.29" fill="#656971"/>
        <path id="path422" d="m4055.8 1248.4c14.69-13.2 26.41-21.49 35.13-24.86 8.73-3.38 18.11-5.06 28.15-5.06 21.09 0 36.69 8.94 46.8 26.83 10.11 17.9 15.17 40.71 15.17 68.42 0 25.82-4.48 46.28-13.42 61.38-8.95 15.11-22.8 22.66-41.57 22.66-11.93 0-23.74-3.26-35.45-9.79-11.71-6.52-23.31-16.39-34.81-29.58zm-43.29-59.59v349.59h43.29v-152.95c8.88 16.71 19.9 29.24 33.08 37.59 13.17 8.35 28.56 12.53 46.17 12.53 29.26 0 51.89-10.86 67.9-32.55 16.02-21.7 24.01-50 24.01-84.89 0-37.68-9.05-69.13-27.17-94.35-18.12-25.21-42.84-37.82-74.12-37.82-9.17 0-17.91 1.1-26.21 3.29-8.29 2.2-15.68 5.35-22.15 9.45-6.48 4.1-13.65 10.7-21.51 19.78l-5.5-29.67h-37.79" fill="#656971"/>
        <path id="path424" d="m4323 1336.4h108.33c0 23.88-4.79 40.94-14.37 51.2-9.57 10.25-21.81 15.38-36.74 15.38-17.03 0-30.35-5.53-39.92-16.59s-15.34-27.73-17.3-49.99zm150.52-137.33c-29.44-8.79-54.63-13.18-75.59-13.18-37.61 0-67.19 12.48-88.74 37.46s-32.32 54.46-32.32 88.44c0 22.41 4.74 43.73 14.26 63.94 9.51 20.22 21.96 35.23 37.35 45.04 15.38 9.82 33.47 14.73 54.29 14.73 27.93 0 50.23-9.89 66.88-29.67 16.64-19.77 24.97-49.36 24.97-88.77l-0.22-13.18h-153.37c2.39-21.09 7.02-37.35 13.88-48.78 6.87-11.42 16.01-20.32 27.43-26.7 11.42-6.36 25.93-9.55 43.55-9.55 8.96 0 17.88 0.76 26.76 2.31 8.88 1.53 22.51 5.6 40.87 12.19v-34.28" fill="#656971"/>
        <path id="path426" d="m4546.4 1191.4v238.62h43.29v-238.62zm0 281.91v43.29h43.29v-43.29h-43.29" fill="#656971"/>
        <path id="path428" d="m4782.8 1191.4c-13.33-3.66-24.9-5.49-34.7-5.49-21.4 0-38.39 6.19-50.98 18.57-12.61 12.37-18.91 29.99-18.91 52.84v140.19h-29.88v32.51h29.88v43.29l43.29 4.18v-47.47h62.41v-32.51h-62.41v-132.28c0-16.7 3.23-28.67 9.67-35.93 6.45-7.24 16.7-10.87 30.76-10.87 5.72 0 12.67 0.95 20.87 2.85v-29.88" fill="#656971"/>
        <path id="path430" d="m4872 1336.4h108.33c0 23.88-4.78 40.94-14.36 51.2-9.57 10.25-21.82 15.38-36.75 15.38-17.03 0-30.34-5.53-39.91-16.59s-15.35-27.73-17.31-49.99zm150.52-137.33c-29.43-8.79-54.63-13.18-75.59-13.18-37.6 0-67.18 12.48-88.74 37.46-21.55 24.98-32.32 54.46-32.32 88.44 0 22.41 4.74 43.73 14.27 63.94 9.5 20.22 21.95 35.23 37.34 45.04 15.38 9.82 33.48 14.73 54.29 14.73 27.94 0 50.23-9.89 66.88-29.67 16.64-19.77 24.97-49.36 24.97-88.77l-0.22-13.18h-153.37c2.39-21.09 7.02-37.35 13.89-48.78 6.86-11.42 16-20.32 27.42-26.7 11.42-6.36 25.93-9.55 43.55-9.55 8.96 0 17.88 0.76 26.76 2.31 8.89 1.53 22.51 5.6 40.87 12.19v-34.28" fill="#656971"/>
        <path id="path432" d="m5095.5 1191.4v238.62h43.29v-44.62c8.2 15.98 18.86 28.32 31.97 37.04s27.36 13.08 42.74 13.08c4.39 0 9.01-0.37 13.83-1.1v-40.43c-7.32 2.49-13.91 3.73-19.76 3.73-13.63 0-26.19-4.07-37.69-12.2-11.5-8.14-21.86-20.35-31.09-36.63v-157.49h-43.29" fill="#656971"/>
        <path id="path434" d="m5307.4 1191.4-68.33 238.62h42.48l52.23-184.8 56.67 184.8h43.12l49.4-184.78 59.9 184.78h37.22l-77.65-238.62h-43.64l-50.54 184.8-57.12-184.8h-43.74" fill="#656971"/>
        <path id="path436" d="m5721.3 1218.5c21.61 0 38.36 8.02 50.26 24.08 11.91 16.07 17.86 38.83 17.86 68.32 0 29.61-5.99 52.38-17.96 68.3-11.99 15.91-28.71 23.87-50.16 23.87-21.46 0-38.14-7.96-50.04-23.87-11.9-15.92-17.85-38.69-17.85-68.3 0-29.49 5.95-52.25 17.85-68.32 11.9-16.06 28.58-24.08 50.04-24.08zm0.12-32.52c-22.74 0-42.49 4.65-59.28 13.96s-30.1 23.97-39.92 43.99c-9.83 20.01-14.73 42.33-14.73 66.97 0 23.16 4.46 44.67 13.41 64.53 8.94 19.88 21.96 34.86 39.04 44.98s37.57 15.18 61.48 15.18c22.72 0 42.52-4.62 59.38-13.86 16.86-9.23 30.17-23.9 39.91-43.99 9.76-20.08 14.63-42.37 14.63-66.84 0-23.47-4.54-45.13-13.63-65-9.09-19.86-22.11-34.81-39.04-44.86-16.94-10.04-37.36-15.06-61.25-15.06" fill="#656971"/>
        <path id="path438" d="m5902.8 1191.4v346.95h43.29v-152.95c10.99 15.98 23.77 28.32 38.34 37.04 14.58 8.72 29.7 13.08 45.39 13.08 20.21 0 36.61-6.42 49.21-19.25 12.59-12.83 18.89-30.6 18.89-53.33v-171.54h-43.28v157.49c0 16.57-1.47 27.49-4.39 32.78-2.93 5.27-7.04 9.34-12.31 12.2s-10.92 4.29-16.91 4.29c-10.71 0-22.24-3.3-34.61-9.89-12.39-6.6-25.82-20.68-40.33-42.23v-154.64h-43.29" fill="#656971"/>
        <path id="path440" d="m6182 1191.4v346.95h43.29v-346.95h-43.29" fill="#656971"/>
        <path id="path442" d="m6320.3 1191.4v206.11h-33.83v32.51h33.83v28.57c0 19.63 2.52 35.05 7.57 46.25 5.04 11.21 13.3 20.51 24.79 27.91 11.47 7.39 26.5 11.09 45.08 11.09 14.62 0 31.14-2.42 49.57-7.25v-34.28c-19.49 6.01-35.09 9.01-46.8 9.01-6.75 0-12.9-1.06-18.46-3.18-5.57-2.13-10.04-5.9-13.41-11.32s-5.04-16.62-5.04-33.62v-33.18h59.54v-32.51h-59.54v-206.11h-43.3" fill="#656971"/>
        <path id="path444" d="m6596.2 1245.3v61.74l-14.13 0.44c-23.18 0-42.63-4.4-58.33-13.19s-23.55-20.72-23.55-35.81c0-10.4 3.84-19.19 11.55-26.37 7.7-7.18 16.71-10.77 27.03-10.77 9.28 0 18.7 2.01 28.27 6.05 9.57 4.02 19.29 10 29.16 17.91zm6.38-23.52c-13.07-11.86-25.95-20.8-38.65-26.8-12.7-6.01-25.13-9.01-37.31-9.01-17.08 0-32.97 5.56-47.67 16.7-14.7 11.13-22.05 27.39-22.05 48.78 0 23.44 10.25 42.8 30.76 58.12 20.5 15.3 53.27 22.96 98.3 22.96h10.24v28.87c0 11.46-1.56 19.8-4.69 25.02-3.13 5.21-8 9.29-14.64 12.23-6.63 2.94-14.85 4.41-24.68 4.41-22.8 0-47.68-7.03-74.64-21.1v35.82c29.51 11.86 57.31 17.8 83.42 17.8 14.23 0 27.32-2.24 39.26-6.71 11.94-4.48 21.46-11.51 28.59-21.11 7.11-9.61 10.67-25.04 10.67-46.3v-108.22c0-12.02 0.95-20.12 2.86-24.3 1.9-4.18 4.57-7.37 8.02-9.57 3.44-2.2 7.43-3.3 11.97-3.3 1.91 0 4.69 0.29 8.35 0.88l3.08-23.95c-9.82-4.69-20.66-7.03-32.52-7.03-7.91 0-15.53 2.56-22.85 7.69-7.33 5.12-12.6 14.5-15.82 28.12" fill="#656971"/>
        <path id="path446" d="m6726.1 1191.4v346.95h43.3v-152.95c10.98 15.98 23.76 28.32 38.34 37.04s29.69 13.08 45.38 13.08c20.21 0 36.61-6.42 49.21-19.25 12.59-12.83 18.89-30.6 18.89-53.33v-171.54h-43.28v157.49c0 16.57-1.46 27.49-4.39 32.78-2.93 5.27-7.04 9.34-12.31 12.2s-10.92 4.29-16.91 4.29c-10.71 0-22.24-3.3-34.61-9.89-12.39-6.6-25.82-20.68-40.32-42.23v-154.64h-43.3" fill="#656971"/>
        <path id="path448" d="m7005.4 1191.4v238.62h43.29v-44.62c8.21 15.98 18.86 28.32 31.98 37.04 13.1 8.72 27.35 13.08 42.73 13.08 4.39 0 9.01-0.37 13.84-1.1v-40.43c-7.33 2.49-13.92 3.73-19.77 3.73-13.63 0-26.19-4.07-37.68-12.2-11.51-8.14-21.87-20.35-31.1-36.63v-157.49h-43.29" fill="#656971"/>
        <path id="path450" d="m7295.8 1191.4c-13.33-3.66-24.9-5.49-34.71-5.49-21.39 0-38.39 6.19-50.97 18.57-12.61 12.37-18.91 29.99-18.91 52.84v140.19h-29.88v32.51h29.88v43.29l43.29 4.18v-47.47h62.4v-32.51h-62.4v-132.28c0-16.7 3.22-28.67 9.67-35.93 6.44-7.24 16.7-10.87 30.76-10.87 5.71 0 12.67 0.95 20.87 2.85v-29.88" fill="#656971"/>
        <path id="path452" d="m3562.7 675.92h58.96c30.68 0 53.66 4.879 68.94 14.617 15.26 9.742 27.2 25.16 35.83 46.25 8.62 21.102 12.93 44.602 12.93 70.539 0 22.852-3.72 43.684-11.18 62.512-7.45 18.82-19.51 33.91-36.17 45.262-16.65 11.347-47.12 17.027-91.38 17.027h-37.93zm-46.14-34.492v325.2h108.02c41.71 0 73.32-6.051 94.84-18.129 21.52-12.09 38.38-29.738 50.61-52.961 12.22-23.211 18.33-51.16 18.33-83.82 0-30.91-5.6-59.25-16.8-85.039-11.2-25.782-28.21-46.43-51.04-61.961-22.83-15.528-54.59-23.289-95.29-23.289h-108.67" fill="#656971"/>
        <path id="path454" d="m3974.2 923.34v38.012h38.01v-38.012zm-86.8 0v38.012h38.02v-38.012zm116.68-281.91v44.832c-11.13-16.121-23.94-28.532-38.46-37.25-14.49-8.711-29.59-13.071-45.25-13.071-20.08 0-36.45 6.411-49.11 19.219-12.68 12.82-19.01 30.66-19.01 53.512v171.38h43.29v-157.32c0-16.55 1.46-27.468 4.39-32.742 2.93-5.277 7.03-9.379 12.31-12.308 5.27-2.93 10.98-4.391 17.13-4.391 10.55 0 22.02 3.301 34.39 9.891 12.38 6.59 25.82 20.648 40.32 42.191v154.68h43.28v-238.62h-43.28" fill="#656971"/>
        <path id="path456" d="m4125.4 649.78v39.778c28.27-14.071 52.88-21.098 73.83-21.098 12.3 0 22.6 3.367 30.88 10.117 8.27 6.742 12.41 15.184 12.41 25.293 0 6.309-2.06 12.469-6.16 18.488-4.11 6-13.58 12.102-28.4 18.25l-25.32 10.782c-19.52 8.07-33.75 17.449-42.71 28.16-8.95 10.551-13.43 23.527-13.43 38.918 0 19.211 6.99 35.191 20.94 47.941 13.97 12.762 34.61 19.141 61.94 19.141 13.36 0 29.9-1.832 49.59-5.5l9.04-1.75v-36.262c-24.28 7.32-43.63 10.992-58.05 10.992-13.97 0-24.42-3.011-31.34-9.019-6.91-6.024-10.37-13.133-10.37-21.34 0-6.453 2.35-12.25 7.04-17.383 4.55-5.277 12.78-10.488 24.66-15.617l20.92-8.801c28.03-11.883 45.86-23.609 53.49-35.191 7.63-11.578 11.45-24.192 11.45-37.821 0-13.058-3.55-25.148-10.66-36.289-7.1-11.148-17.58-19.879-31.42-26.172-13.85-6.296-29.27-9.457-46.26-9.457-19.76 0-43.8 4.61-72.07 13.84" fill="#656971"/>
        <path id="path458" d="m4354.8 649.78v39.778c28.28-14.071 52.89-21.098 73.83-21.098 12.31 0 22.6 3.367 30.88 10.117 8.27 6.742 12.41 15.184 12.41 25.293 0 6.309-2.06 12.469-6.16 18.488-4.11 6-13.57 12.102-28.4 18.25l-25.32 10.782c-19.52 8.07-33.75 17.449-42.7 28.16-8.96 10.551-13.43 23.527-13.43 38.918 0 19.211 6.98 35.191 20.94 47.941 13.96 12.762 34.61 19.141 61.93 19.141 13.37 0 29.9-1.832 49.6-5.5l9.03-1.75v-36.262c-24.27 7.32-43.62 10.992-58.04 10.992-13.98 0-24.43-3.011-31.34-9.019-6.92-6.024-10.37-13.133-10.37-21.34 0-6.453 2.34-12.25 7.04-17.383 4.55-5.277 12.77-10.488 24.66-15.617l20.91-8.801c28.03-11.883 45.86-23.609 53.49-35.191 7.64-11.578 11.46-24.192 11.46-37.821 0-13.058-3.56-25.148-10.67-36.289-7.1-11.148-17.58-19.879-31.41-26.172-13.85-6.296-29.27-9.457-46.26-9.457-19.77 0-43.8 4.61-72.08 13.84" fill="#656971"/>
        <path id="path460" d="m4620.2 786.45h108.33c0 23.879-4.78 40.942-14.36 51.192-9.57 10.257-21.82 15.39-36.75 15.39-17.03 0-30.34-5.531-39.91-16.59-9.57-11.062-15.34-27.722-17.31-49.992zm150.52-137.32c-29.43-8.789-54.63-13.188-75.58-13.188-37.61 0-67.19 12.481-88.74 37.457-21.56 24.973-32.33 54.461-32.33 88.442 0 22.41 4.75 43.73 14.27 63.949 9.5 20.211 21.95 35.223 37.34 45.039 15.38 9.813 33.48 14.723 54.29 14.723 27.94 0 50.23-9.891 66.89-29.672 16.64-19.77 24.97-49.359 24.97-88.77l-0.23-13.179h-153.37c2.39-21.09 7.02-37.352 13.89-48.782 6.86-11.418 16-20.32 27.42-26.699 11.43-6.359 25.94-9.558 43.56-9.558 8.95 0 17.88 0.769 26.75 2.32 8.89 1.527 22.51 5.59 40.87 12.187v-34.269" fill="#656971"/>
        <path id="path462" d="m4843.7 641.43v346.95h43.29v-346.95h-43.29" fill="#656971"/>
        <path id="path464" d="m5126.7 823.33c-14.94 13.203-26.77 21.442-35.48 24.75-8.72 3.293-18.13 4.953-28.23 4.953-21.1 0-36.74-8.871-46.92-26.633-10.18-17.738-15.27-40.617-15.27-68.628 0-25.961 4.5-46.418 13.52-61.379 9-14.961 22.96-22.442 41.85-22.442 12.01 0 23.92 3.301 35.71 9.903 11.79 6.589 23.39 16.429 34.82 29.476zm0-181.9v44.832c-8.77-16.692-19.79-29.262-33.03-37.684-13.23-8.43-28.7-12.637-46.4-12.637-29.26 0-51.98 10.809-68.14 32.43-16.17 21.641-24.25 49.969-24.25 85 0 37.84 9.07 69.309 27.21 94.457 18.14 25.141 42.94 37.723 74.39 37.723 9.21 0 17.99-1.102 26.33-3.301s15.76-5.309 22.28-9.328c6.51-4.043 13.71-10.672 21.61-19.891v135.35h43.29v-346.95h-43.29" fill="#656971"/>
        <path id="path466" d="m5351.9 668.46c21.62 0 38.36 8.019 50.27 24.078 11.9 16.07 17.86 38.832 17.86 68.313 0 29.617-6 52.398-17.97 68.308-11.98 15.91-28.7 23.871-50.16 23.871-21.45 0-38.13-7.961-50.03-23.871-11.91-15.91-17.86-38.691-17.86-68.308 0-29.481 5.95-52.243 17.86-68.313 11.9-16.059 28.58-24.078 50.03-24.078zm0.12-32.52c-22.73 0-42.49 4.649-59.28 13.957-16.78 9.313-30.09 23.973-39.92 43.993-9.82 20.007-14.72 42.339-14.72 66.961 0 23.168 4.46 44.679 13.4 64.546 8.95 19.864 21.97 34.864 39.05 44.981 17.08 10.101 37.57 15.172 61.47 15.172 22.73 0 42.52-4.629 59.39-13.86 16.85-9.23 30.16-23.902 39.91-43.98 9.75-20.09 14.63-42.371 14.63-66.859 0-23.454-4.54-45.122-13.64-64.993-9.09-19.859-22.11-34.82-39.04-44.859s-37.35-15.059-61.25-15.059" fill="#656971"/>
        <path id="path468" d="m5533.4 641.43v238.62h43.29v-44.621c8.2 15.98 18.86 28.32 31.97 37.039 13.11 8.722 27.36 13.082 42.74 13.082 4.39 0 9.01-0.371 13.83-1.102v-40.429c-7.32 2.492-13.91 3.742-19.76 3.742-13.63 0-26.19-4.071-37.69-12.223-11.5-8.129-21.86-20.34-31.09-36.617v-157.49h-43.29" fill="#656971"/>
        <path id="path470" d="m5725.7 641.43v206.1h-33.83v32.52h33.83v28.57c0 19.629 2.52 35.051 7.57 46.25 5.04 11.207 13.3 20.508 24.79 27.91 11.47 7.391 26.5 11.09 45.08 11.09 14.61 0 31.14-2.422 49.57-7.242v-34.277c-19.49 5.988-35.09 9-46.8 9-6.75 0-12.9-1.063-18.46-3.18-5.57-2.133-10.04-5.902-13.41-11.32-3.37-5.422-5.05-16.633-5.05-33.622v-33.179h59.55v-32.52h-59.55v-206.1h-43.29" fill="#656971"/>
        <path id="path472" d="m6052.6 786.45h108.33c0 23.879-4.79 40.942-14.37 51.192-9.57 10.257-21.81 15.39-36.75 15.39-17.03 0-30.34-5.531-39.91-16.59-9.57-11.062-15.34-27.722-17.3-49.992zm150.51-137.32c-29.43-8.789-54.62-13.188-75.58-13.188-37.61 0-67.19 12.481-88.74 37.457-21.55 24.973-32.33 54.461-32.33 88.442 0 22.41 4.75 43.73 14.27 63.949 9.5 20.211 21.96 35.223 37.35 45.039 15.38 9.813 33.47 14.723 54.28 14.723 27.94 0 50.24-9.891 66.89-29.672 16.64-19.77 24.97-49.359 24.97-88.77l-0.23-13.179h-153.37c2.4-21.09 7.03-37.352 13.89-48.782 6.87-11.418 16.01-20.32 27.42-26.699 11.43-6.359 25.94-9.558 43.56-9.558 8.95 0 17.88 0.769 26.76 2.32 8.88 1.527 22.51 5.59 40.86 12.187v-34.269" fill="#656971"/>
        <path id="path474" d="m6276.8 641.43v54.281h54.28v-54.281h-54.28" fill="#656971"/>
        <path id="path476" d="m6506 641.43-122.78 325.2h46.24l100.54-266.31 97.34 266.31h40.22l-118-325.2h-43.56" fill="#656971"/>
        <path id="path478" d="m6713.4 641.43v54.281h54.28v-54.281h-54.28" fill="#656971"/>
    </g>
  </g>
</svg>