<svg id="Gruppe_139" data-name="Gruppe 139" xmlns="http://www.w3.org/2000/svg" width="23.729" height="19.783" viewBox="0 0 23.729 19.783">
  <path id="Pfad_129" data-name="Pfad 129" d="M1535.2,659.508a.247.247,0,0,0,.33-.233v-4.7L1531.8,658.3Z" transform="translate(-1520.218 -639.754)" fill="#454545"/>
  <path id="Pfad_130" data-name="Pfad 130" d="M1486.521,472.253a.247.247,0,0,0-.326.234v2.751l4.791-1.48Z" transform="translate(-1478.26 -471.993)" fill="#454545"/>
  <path id="Pfad_131" data-name="Pfad 131" d="M1486.195,602.882v6.394a.247.247,0,0,0,.165.233l2.562.908,3.909-3.908Z" transform="translate(-1478.26 -592.192)" fill="#454545"/>
  <path id="Pfad_132" data-name="Pfad 132" d="M1486.195,504.68l7.284,3.981.09-.09V497.8a.247.247,0,0,0-.168-.234l-.99-.334-6.216,1.92Z" transform="translate(-1478.26 -494.992)" fill="#454545"/>
  <path id="Pfad_133" data-name="Pfad 133" d="M1394.041,473.034a.238.238,0,0,0-.322-.222l-6.642,2.525a.238.238,0,0,0-.153.222v7.286l7.117-6.734Z" transform="translate(-1386.924 -472.505)" fill="#454545"/>
  <path id="Pfad_134" data-name="Pfad 134" d="M1448.255,531.509l2.215,2.046v-4.141Z" transform="translate(-1443.352 -524.597)" fill="#454545"/>
  <path id="Pfad_135" data-name="Pfad 135" d="M1386.966,567.2l-.042-.044v8.078a.238.238,0,0,0,.32.223l6.642-2.459a.237.237,0,0,0,.155-.223V565.84l-2.855-2.637Z" transform="translate(-1386.924 -555.685)" fill="#454545"/>
  <path id="Pfad_136" data-name="Pfad 136" d="M1638.392,477.81v-8.4a.252.252,0,0,0-.337-.237l-.492.177-3.113,6.346Z" transform="translate(-1614.663 -469.156)" fill="#454545"/>
  <path id="Pfad_137" data-name="Pfad 137" d="M1588.849,478.822a.252.252,0,0,0-.167.237v9.2l5.583-11.382Z" transform="translate(-1572.554 -476.264)" fill="#454545"/>
  <path id="Pfad_138" data-name="Pfad 138" d="M1588.682,567.492v5.52a.252.252,0,0,0,.333.238l7.1-2.417a.252.252,0,0,0,.171-.238v-7.448l-4.33-2.324Z" transform="translate(-1572.554 -553.496)" fill="#454545"/>
</svg>
