<svg id="Gruppe_140" data-name="Gruppe 140" xmlns="http://www.w3.org/2000/svg" width="22.017" height="20.075" viewBox="0 0 22.017 20.075">
  <path id="Pfad_139" data-name="Pfad 139" d="M327.089,784.271a13.864,13.864,0,0,0-3.068-4.625.5.5,0,1,0-.708.708,12.986,12.986,0,0,1,0,18.365.5.5,0,1,0,.708.708,14.024,14.024,0,0,0,3.068-15.157Z" transform="translate(-306.094 -779.5)" fill="#454545"/>
  <path id="Pfad_140" data-name="Pfad 140" d="M254.712,848.95a.5.5,0,1,0-.708.708,6.094,6.094,0,0,1,0,8.618.5.5,0,1,0,.708.708,7.095,7.095,0,0,0,0-10.034Z" transform="translate(-241.659 -843.929)" fill="#454545"/>
  <path id="Pfad_141" data-name="Pfad 141" d="M289.394,814.271a.5.5,0,1,0-.708.708,9.553,9.553,0,0,1,0,13.5.5.5,0,1,0,.708.708,10.555,10.555,0,0,0,0-14.911Z" transform="translate(-273.903 -811.689)" fill="#454545"/>
  <path id="Pfad_142" data-name="Pfad 142" d="M89.887,820.652a.854.854,0,0,0,.56.211.866.866,0,0,0,.361-.08.852.852,0,0,0,.5-.783V805.291a.861.861,0,0,0-1.424-.651L84.6,809.2H81.267a.862.862,0,0,0-.861.861v5.165a.862.862,0,0,0,.861.861H84.6Z" transform="translate(-80.406 -802.676)" fill="#454545"/>
</svg>
